<svg xmlns="http://www.w3.org/2000/svg" width="52.25" height="52.16" viewBox="0 0 52.25 52.16">
  <defs>
    <style>
      .cls-1 {
        fill: #240d41;
        fill-rule: evenodd;
        opacity: 0.8;
      }
    </style>
  </defs>
  <path id="Forma_1" data-name="Forma 1" class="cls-1" d="M196.494,2877.91a4.165,4.165,0,1,0-4.172-4.17A4.175,4.175,0,0,0,196.494,2877.91Zm0-6.67a2.5,2.5,0,1,1-2.5,2.5A2.5,2.5,0,0,1,196.494,2871.24Zm0,8.33a6.913,6.913,0,0,0-3.247.81,0.834,0.834,0,0,0,.788,1.47,5.21,5.21,0,0,1,7.608,3.76h-5.149a0.83,0.83,0,1,0,0,1.66h6.049a0.831,0.831,0,0,0,.834-0.83A6.883,6.883,0,0,0,196.494,2879.57Zm-22.657,6.04h-5.223a5.209,5.209,0,0,1,7.607-3.76,0.834,0.834,0,1,0,.788-1.47,6.888,6.888,0,0,0-10.129,6.06,0.831,0.831,0,0,0,.834.83h6.124A0.83,0.83,0,1,0,173.837,2885.61Zm-0.074-7.7a4.165,4.165,0,1,0-4.171-4.17A4.175,4.175,0,0,0,173.763,2877.91Zm0-6.67a2.5,2.5,0,1,1-2.5,2.5A2.5,2.5,0,0,1,173.763,2871.24Zm11.366,6.97a5.36,5.36,0,1,0-5.371-5.36A5.375,5.375,0,0,0,185.129,2878.21Zm0-9.06a3.7,3.7,0,1,1-3.7,3.7A3.706,3.706,0,0,1,185.129,2869.15Zm0,10.72a9.062,9.062,0,0,0-9.058,9.04,0.831,0.831,0,0,0,.834.83h16.447a0.831,0.831,0,0,0,.834-0.83A9.062,9.062,0,0,0,185.129,2879.87Zm-7.343,8.21a7.392,7.392,0,0,1,14.685,0H177.786Zm32.637-10.3H208.4a23.294,23.294,0,0,0-22.437-22.39v-2.02a0.834,0.834,0,0,0-1.667,0v2.02a23.293,23.293,0,0,0-22.436,22.39h-2.025a0.831,0.831,0,0,0-.834.83,0.839,0.839,0,0,0,.834.84h2.025a23.293,23.293,0,0,0,22.436,22.39v2.02a0.834,0.834,0,0,0,1.667,0v-2.02a23.294,23.294,0,0,0,22.437-22.39h2.024a0.839,0.839,0,0,0,.834-0.84A0.831,0.831,0,0,0,210.423,2877.78Zm-24.461,22.39v-1.98a0.834,0.834,0,1,0-1.667,0v1.98a21.618,21.618,0,0,1-20.768-20.72h1.991a0.839,0.839,0,0,0,.834-0.84,0.831,0.831,0,0,0-.834-0.83h-1.991a21.627,21.627,0,0,1,20.768-20.73v1.99a0.834,0.834,0,0,0,1.667,0v-1.99a21.627,21.627,0,0,1,20.768,20.73h-1.991a0.831,0.831,0,0,0-.834.83,0.839,0.839,0,0,0,.834.84h1.991A21.618,21.618,0,0,1,185.962,2900.17Z" transform="translate(-159 -2852.53)"/>
</svg>
