<svg xmlns="http://www.w3.org/2000/svg" width="44.281" height="44.22" viewBox="0 0 44.281 44.22">
  <defs>
    <style>
      .cls-1 {
        fill-rule: evenodd;
      }
    </style>
  </defs>
  <path id="Forma_1" data-name="Forma 1" class="cls-1" d="M212.436,3071.02a2.779,2.779,0,0,0,2-.83,2.811,2.811,0,0,0,0-3.98l-9.291-9.28a18.914,18.914,0,1,0-28.607,2.14h0a18.969,18.969,0,0,0,24.613,1.84l9.292,9.28A2.78,2.78,0,0,0,212.436,3071.02Zm-8.04-12.97,9.1,9.09a1.5,1.5,0,1,1-2.119,2.12h0l-9.1-9.09Zm-14.483-29.91a17.576,17.576,0,1,1-12.443,29.99h0A17.565,17.565,0,0,1,189.913,3028.14Zm0,34.25a16.685,16.685,0,1,0-11.82-4.88A16.648,16.648,0,0,0,189.913,3062.39Zm0-32.05a15.37,15.37,0,1,1-10.883,4.5A15.342,15.342,0,0,1,189.913,3030.34Zm-9.23,6.81a0.655,0.655,0,0,0,.469-0.19,12.405,12.405,0,0,1,17.522,0,0.664,0.664,0,0,0,.937-0.94,13.732,13.732,0,0,0-19.4,0,0.666,0.666,0,0,0,0,.94A0.653,0.653,0,0,0,180.683,3037.15Z" transform="translate(-171 -3026.81)"/>
</svg>
