<svg xmlns="http://www.w3.org/2000/svg" width="48.718" height="48.62" viewBox="0 0 48.718 48.62">
  <defs>
    <style>
      .cls-1 {
        fill-rule: evenodd;
      }
    </style>
  </defs>
  <path id="Forma_1" data-name="Forma 1" class="cls-1" d="M209.714,3215.26h-3.239a19.744,19.744,0,0,0-18.261-18.34v-3.12a1.429,1.429,0,0,0-2.857,0v3.12a19.745,19.745,0,0,0-18.261,18.34h-3.239a1.425,1.425,0,1,0,0,2.85h3.256a19.744,19.744,0,0,0,18.149,18.09v3.37a1.429,1.429,0,1,0,2.857,0v-3.35a19.76,19.76,0,0,0,18.34-18.11h3.255A1.425,1.425,0,1,0,209.714,3215.26Zm-10.826,2.85h4.7a16.891,16.891,0,0,1-15.472,15.25v-4.59a1.429,1.429,0,1,0-2.857,0v4.57a16.882,16.882,0,0,1-15.282-15.23h4.7a1.425,1.425,0,1,0,0-2.85h-4.724a16.888,16.888,0,0,1,15.4-15.48v4.83a1.429,1.429,0,1,0,2.857,0v-4.83a16.889,16.889,0,0,1,15.4,15.48h-4.725A1.425,1.425,0,1,0,198.888,3218.11Zm-10.681-1.68a1.226,1.226,0,0,0-.021-0.14,1.425,1.425,0,0,0-.034-0.14c-0.014-.04-0.03-0.09-0.047-0.13s-0.038-.08-0.06-0.13-0.046-.08-0.072-0.12-0.054-.07-0.083-0.11-0.061-.07-0.095-0.1a0.652,0.652,0,0,0-.1-0.1c-0.036-.03-0.074-0.05-0.113-0.08a0.636,0.636,0,0,0-.12-0.07l-0.127-.06c-0.042-.02-0.086-0.03-0.131-0.05l-0.135-.03a0.657,0.657,0,0,0-.139-0.02,1.32,1.32,0,0,0-.281,0,0.657,0.657,0,0,0-.138.02l-0.136.03c-0.044.02-.089,0.03-0.132,0.05l-0.126.06a0.669,0.669,0,0,0-.12.07c-0.039.03-.077,0.05-0.113,0.08a0.748,0.748,0,0,0-.1.1c-0.034.03-.065,0.07-0.095,0.1s-0.057.08-.082,0.11-0.051.08-.073,0.12-0.042.09-.059,0.13a1.355,1.355,0,0,0-.047.13c-0.014.05-.025,0.09-0.035,0.14a1.226,1.226,0,0,0-.021.14c0,0.04-.006.09-0.006,0.14s0,0.09.006,0.14,0.012,0.09.021,0.13a1.1,1.1,0,0,0,.035.14,1.355,1.355,0,0,0,.047.13c0.017,0.04.037,0.09,0.059,0.13s0.047,0.08.073,0.12,0.053,0.07.082,0.11a0.649,0.649,0,0,0,.095.1,0.748,0.748,0,0,0,.1.1,0.647,0.647,0,0,0,.113.08,0.669,0.669,0,0,0,.12.07l0.126,0.06a0.686,0.686,0,0,0,.132.05l0.136,0.03a0.657,0.657,0,0,0,.138.02,0.67,0.67,0,0,0,.141.01,1.961,1.961,0,0,0,.279-0.03l0.135-.03a0.631,0.631,0,0,0,.131-0.05l0.127-.06a0.636,0.636,0,0,0,.12-0.07,1.772,1.772,0,0,0,.312-0.28c0.029-.04.058-0.07,0.083-0.11s0.05-.08.072-0.12,0.042-.09.06-0.13,0.033-.09.047-0.13a0.958,0.958,0,0,0,.034-0.14c0.009-.04.016-0.09,0.021-0.13s0.007-.1.007-0.14S188.211,3216.47,188.207,3216.43Z" transform="translate(-162.438 -3192.38)"/>
</svg>
