<svg xmlns="http://www.w3.org/2000/svg" width="62" height="53.03" viewBox="0 0 62 53.03">
  <defs>
    <style>
      .cls-1 {
        fill-rule: evenodd;
      }
    </style>
  </defs>
  <path id="Forma_1" data-name="Forma 1" class="cls-1" d="M481.074,2891.73l-4.037-22.79a0.485,0.485,0,0,0-.954.17l4.038,22.79a0.478,0.478,0,0,0,.476.39h0.085A0.486,0.486,0,0,0,481.074,2891.73Zm0.506,2.85c-0.707-3.99-17.528-4.57-20.893-4.65a0.5,0.5,0,0,0-.5.47,0.475,0.475,0,0,0,.474.49c7.483,0.18,19.52,1.37,19.961,3.86a0.479,0.479,0,0,0,.476.39h0.085A0.488,0.488,0,0,0,481.58,2894.58Zm-5.047-28.49a0.49,0.49,0,0,0-.561-0.39,0.485,0.485,0,0,0-.392.56c0.764,4.32-12.295,8.97-17.391,10.4a0.478,0.478,0,0,0,.131.94,0.579,0.579,0,0,0,.131-0.01,81.243,81.243,0,0,0,9.313-3.36C474.044,2871.44,477,2868.7,476.533,2866.09Zm1.908-.33a0.482,0.482,0,0,0-.561-0.39l-1.908.33a0.485,0.485,0,0,0-.392.56,0.478,0.478,0,0,0,.476.4,0.251,0.251,0,0,0,.085-0.01l1.907-.33A0.488,0.488,0,0,0,478.441,2865.76Zm5.046,28.48-5.046-28.48a0.485,0.485,0,0,0-.954.17l5.046,28.48a0.488,0.488,0,0,0,.476.4,0.248,0.248,0,0,0,.085-0.01A0.488,0.488,0,0,0,483.487,2894.24Zm0,0a0.484,0.484,0,0,0-.561-0.39l-1.907.34a0.478,0.478,0,0,0,.083.95h0.085l1.907-.34A0.488,0.488,0,0,0,483.487,2894.24Zm-22.334-3.91a0.482,0.482,0,0,0-.561-0.39l-10.018,1.76-2.187-12.34,10.017-1.76a0.482,0.482,0,1,0-.168-0.95l-10.5,1.84a0.486,0.486,0,0,0-.392.56l2.355,13.29a0.49,0.49,0,0,0,.477.4c0.028,0,.056-0.01.084-0.01l10.5-1.84A0.487,0.487,0,0,0,461.153,2890.33Zm-10.5,1.84-2.356-13.29a0.489,0.489,0,0,0-.256-0.35,0.5,0.5,0,0,0-.432,0l-6.342,3.07a0.492,0.492,0,0,0-.265.52l1.682,9.49a0.488,0.488,0,0,0,.427.4l7.015,0.72a0.092,0.092,0,0,0,.05.01,0.486,0.486,0,0,0,.355-0.16A0.474,0.474,0,0,0,450.658,2892.17Zm-7.078-1.08-1.555-8.78,5.435-2.63,2.133,12.03Zm17.236-2.66-1.682-9.49a0.483,0.483,0,0,0-.561-0.39,0.471,0.471,0,0,0-.393.55l1.682,9.5a0.489,0.489,0,0,0,.476.4,0.248,0.248,0,0,0,.085-0.01A0.486,0.486,0,0,0,460.816,2888.43Zm-13.968-6.51a0.488,0.488,0,0,0-.656-0.2l-2.695,1.46a0.473,0.473,0,0,0-.194.65,0.483,0.483,0,0,0,.656.19l2.694-1.45A0.478,0.478,0,0,0,446.848,2881.92Zm0.991,7.34-3.03-.44a0.48,0.48,0,1,0-.142.95l3.03,0.45h0.071a0.482,0.482,0,0,0,.479-0.41A0.488,0.488,0,0,0,447.839,2889.26Zm-0.267-3.4a0.482,0.482,0,0,0-.561-0.39l-2.862.5a0.484,0.484,0,0,0,.084.96,0.251,0.251,0,0,0,.085-0.01l2.861-.5A0.486,0.486,0,0,0,447.572,2885.86Zm3.509-7.96a0.483,0.483,0,0,0-.561-0.39l-1.908.34a0.478,0.478,0,0,0,.083.95h0.085l1.908-.34A0.486,0.486,0,0,0,451.081,2877.9Zm13.851,28.29-4.881-10.89a0.485,0.485,0,0,0-.64-0.24,0.472,0.472,0,0,0-.245.63l4.881,10.89a0.487,0.487,0,0,0,.443.29,0.671,0.671,0,0,0,.2-0.04A0.486,0.486,0,0,0,464.932,2906.19Zm-5.725,1-4.881-10.89a0.485,0.485,0,0,0-.884.4l4.88,10.89a0.48,0.48,0,0,0,.443.28,0.458,0.458,0,0,0,.2-0.04A0.483,0.483,0,0,0,459.207,2907.19Zm6.713-1.05a0.482,0.482,0,0,0-.561-0.4l-7.633,1.34a0.487,0.487,0,0,0-.393.56,0.48,0.48,0,0,0,.477.4,0.242,0.242,0,0,0,.084-0.01l7.633-1.34A0.473,0.473,0,0,0,465.92,2906.14Zm-13.8-11.29-0.189-1.06a0.484,0.484,0,1,0-.954.16l0.189,1.07a0.489,0.489,0,0,0,.477.4,0.242,0.242,0,0,0,.084-0.01A0.486,0.486,0,0,0,452.117,2894.85Zm9.546-1.64a0.48,0.48,0,0,0-.56-0.39l-9.546,1.64a0.484,0.484,0,0,0,.083.96,0.239,0.239,0,0,0,.083-0.01l9.545-1.64A0.489,0.489,0,0,0,461.663,2893.21Zm0,0-0.168-.95a0.484,0.484,0,0,0-.561-0.39,0.477,0.477,0,0,0-.393.56l0.169,0.95a0.479,0.479,0,0,0,.476.39h0.085A0.486,0.486,0,0,0,461.662,2893.21Zm23.414-32.41h-0.009a0.481,0.481,0,0,0-.48.48,0.487,0.487,0,1,0,.974,0A0.486,0.486,0,0,0,485.076,2860.8Zm2.906,0h-0.009a0.481,0.481,0,0,0-.48.48,0.487,0.487,0,1,0,.974,0A0.486,0.486,0,0,0,487.982,2860.8Zm4.816,28.92a6.27,6.27,0,1,0,6.3,6.27A6.289,6.289,0,0,0,492.8,2889.72Zm0,11.57a5.3,5.3,0,1,1,5.328-5.3A5.322,5.322,0,0,1,492.8,2901.29Zm-6.3-43.38a4.82,4.82,0,1,0,4.844,4.82A4.836,4.836,0,0,0,486.5,2857.91Zm0,8.68a3.86,3.86,0,1,1,3.875-3.86A3.871,3.871,0,0,1,486.5,2866.59Zm7.78,2.89a8.675,8.675,0,1,0,8.719,8.67A8.7,8.7,0,0,0,494.281,2869.48Zm0,16.39a7.715,7.715,0,1,1,7.75-7.72A7.742,7.742,0,0,1,494.281,2885.87Zm-0.193,7.55a2.115,2.115,0,0,1-2.583,0,2.1,2.1,0,0,0-2.1,2.09c0,2.53,3.063,3.92,3.194,3.97a0.505,0.505,0,0,0,.394,0c0.13-.05,3.193-1.44,3.193-3.97A2.1,2.1,0,0,0,494.088,2893.42Zm-1.291,5.08c-0.61-.31-2.421-1.39-2.421-2.99a1.125,1.125,0,0,1,2.033-.67,0.5,0.5,0,0,0,.389.2h0a0.5,0.5,0,0,0,.388-0.2,1.12,1.12,0,0,1,.9-0.46,1.134,1.134,0,0,1,1.132,1.13C495.22,2897.1,493.406,2898.19,492.8,2898.5Zm5.217-22.13a0.486,0.486,0,0,0-.342-0.14h-0.485v-2.41a0.487,0.487,0,0,0-.484-0.49h-0.969a0.486,0.486,0,0,0-.448.3,8.316,8.316,0,0,1-1.8,2.71,3.226,3.226,0,0,1-1.626.85,0.486,0.486,0,0,0-.484.48v2.89a0.488,0.488,0,0,0,.484.49h0.769l0.826,0.82a0.487,0.487,0,0,0,.343.14h3.875a0.486,0.486,0,0,0,.342-0.14C499.177,2880.71,499.177,2877.52,498.014,2876.37Zm-0.565,4.68H494l-0.826-.83a0.487,0.487,0,0,0-.343-0.14h-0.484v-2.01a4.8,4.8,0,0,0,1.765-.99,8.685,8.685,0,0,0,1.941-2.78h0.169v2.41a0.485,0.485,0,0,0,.484.48h0.746A4.256,4.256,0,0,1,497.449,2881.05Zm-5.59-4.82h-2.906a0.478,0.478,0,0,0-.484.48v4.82a0.478,0.478,0,0,0,.484.48h2.906a0.479,0.479,0,0,0,.485-0.48v-4.82A0.479,0.479,0,0,0,491.859,2876.23Zm-0.484,4.82h-1.938v-3.86h1.938v3.86Zm-3.406-17.35a0.533,0.533,0,0,0-.5.46c-0.006.08-.078,0.5-0.969,0.5s-0.963-.41-0.969-0.5a0.484,0.484,0,0,0-.968.02c0,0.5.4,1.44,1.937,1.44s1.937-.94,1.937-1.44A0.483,0.483,0,0,0,487.969,2863.7Zm11.156-8.7a3.855,3.855,0,1,0,3.875,3.86A3.871,3.871,0,0,0,499.125,2855Zm0,6.75a2.9,2.9,0,1,1,2.906-2.89A2.9,2.9,0,0,1,499.125,2861.75Zm3.391-1.45a0.486,0.486,0,0,0-.485.48,2.906,2.906,0,0,1-5.812,0,0.485,0.485,0,0,0-.969,0,3.875,3.875,0,0,0,7.75,0A0.486,0.486,0,0,0,502.516,2860.3Zm-3.391-3.37a0.478,0.478,0,0,0-.484.48v2.89a0.484,0.484,0,0,0,.968,0v-2.89A0.478,0.478,0,0,0,499.125,2856.93Zm1.453,1.44h-2.906a0.485,0.485,0,1,0,0,.97h2.906A0.485,0.485,0,0,0,500.578,2858.37Zm-4.844,0a0.488,0.488,0,0,0-.484.49v1.92a0.485,0.485,0,1,0,.969,0v-1.92A0.488,0.488,0,0,0,495.734,2858.37Zm6.782,0a0.488,0.488,0,0,0-.485.49v1.92a0.485,0.485,0,1,0,.969,0v-1.92A0.488,0.488,0,0,0,502.516,2858.37Z" transform="translate(-441 -2855)"/>
</svg>
