<svg xmlns="http://www.w3.org/2000/svg" width="49.594" height="40.66" viewBox="0 0 49.594 40.66">
  <defs>
    <style>
      .cls-1 {
        fill-rule: evenodd;
      }
    </style>
  </defs>
  <path class="cls-1" d="M485.4,3025.82H442.2a3.2,3.2,0,0,0-3.2,3.19v28.7a3.2,3.2,0,0,0,3.2,3.19h14.4v3.99H451v1.59h25.6v-1.59H471v-3.99h14.4a3.2,3.2,0,0,0,3.2-3.19v-28.7A3.2,3.2,0,0,0,485.4,3025.82Zm-16,39.07H458.2v-3.99h11.2v3.99Zm17.6-7.18a1.6,1.6,0,0,1-1.6,1.6H442.2a1.6,1.6,0,0,1-1.6-1.6v-28.7a1.6,1.6,0,0,1,1.6-1.6h43.2a1.6,1.6,0,0,1,1.6,1.6v28.7Zm-44.8,0h43.2v-28.7H442.2v28.7Zm1.6-27.11h40v25.52h-40V3030.6Zm2.4,1.6a0.8,0.8,0,0,1,.8.8,0.8,0.8,0,0,1-1.6,0A0.8,0.8,0,0,1,446.2,3032.2Zm2.4,0a0.8,0.8,0,0,1,.8.8,0.8,0.8,0,0,1-1.6,0A0.8,0.8,0,0,1,448.6,3032.2Zm2.4,0a0.8,0.8,0,0,1,.8.8,0.8,0.8,0,0,1-1.6,0A0.8,0.8,0,0,1,451,3032.2Zm-5.6,12.76h11.2v-9.57H445.4v9.57Zm1.6-7.98h8v6.38h-8v-6.38Zm11.2,7.98h11.2v-9.57H458.2v9.57Zm1.6-7.98h8v6.38h-8v-6.38Zm11.2,7.98h11.2v-9.57H471v9.57h0Zm1.6-7.98h8v6.38h-8v-6.38Zm-27.2,9.57h24v1.6h-24v-1.6Zm0,3.19h24v1.59h-24v-1.59Zm0,3.19h24v1.59h-24v-1.59Zm26.4-6.38h10.4v1.6H471.8v-1.6Zm0,3.19h10.4v1.59H471.8v-1.59Zm0,3.19h10.4v1.59H471.8v-1.59Z" transform="translate(-439 -3025.81)"/>
</svg>
