<svg xmlns="http://www.w3.org/2000/svg" width="47.844" height="47.72" viewBox="0 0 47.844 47.72">
  <defs>
    <style>
      .cls-1 {
        fill-rule: evenodd;
      }
    </style>
  </defs>
  <path class="cls-1" d="M476.877,3211.57a2.747,2.747,0,0,0-2.746-2.74h-5.046a8.25,8.25,0,0,0,2.182-4.34,3.024,3.024,0,0,0-.729-2.34,2.656,2.656,0,0,0-1.963-.9h-0.027a2.728,2.728,0,0,0-2.744,2.72,3.469,3.469,0,0,1-1,1.36,7.79,7.79,0,0,1-2.973,1.73,3.724,3.724,0,0,0-1.53,1,9.1,9.1,0,0,1-1.032.95,1.588,1.588,0,0,0-.722-0.18h-4.792a1.554,1.554,0,0,0-1.548,1.55v12.75a1.548,1.548,0,0,0,1.548,1.55h4.793a1.541,1.541,0,0,0,1.353-.8h12.229a41.633,41.633,0,0,1,3.944-8.72,2.34,2.34,0,0,0-.408-1.32A2.726,2.726,0,0,0,476.877,3211.57Zm-2.746,1.25h-0.4a0.745,0.745,0,1,0,0,1.49,0.85,0.85,0,0,1,0,1.7h-0.8a0.745,0.745,0,1,0,0,1.49,0.85,0.85,0,0,1,0,1.7h-0.8a0.745,0.745,0,1,0,0,1.49,0.85,0.85,0,0,1,0,1.7H460.1v-7.23a0.749,0.749,0,1,0-1.5,0v7.97a0.048,0.048,0,0,1-.05.05h-4.792a0.048,0.048,0,0,1-.05-0.05v-12.75a0.048,0.048,0,0,1,.05-0.05h4.792a0.048,0.048,0,0,1,.05.05v1.59a0.749,0.749,0,1,0,1.5,0v-1.59c0-.04,0-0.07,0-0.11a11.183,11.183,0,0,0,1.3-1.18,2.077,2.077,0,0,1,.9-0.6,9.131,9.131,0,0,0,3.633-2.17,3.878,3.878,0,0,0,1.37-2.34,1.25,1.25,0,0,1,.365-0.88,1.279,1.279,0,0,1,.895-0.36,1.161,1.161,0,0,1,.857.4,1.547,1.547,0,0,1,.36,1.18,7.905,7.905,0,0,1-3.031,4.68,0.748,0.748,0,0,0,.471,1.33h6.913A1.245,1.245,0,1,1,474.131,3212.82Zm-17.976,7.17a0.75,0.75,0,1,0,.753.75A0.755,0.755,0,0,0,456.155,3219.99Zm30.566-5.63,1.286-3.39a0.76,0.76,0,0,0-.116-0.74l-2.275-2.83,0.171-3.63a0.754,0.754,0,0,0-.337-0.66l-3.041-1.99-0.96-3.51a0.754,0.754,0,0,0-.525-0.52l-3.51-.96-2-3.03a0.76,0.76,0,0,0-.661-0.34l-3.635.17-2.84-2.27a0.773,0.773,0,0,0-.733-0.12l-3.4,1.29-3.4-1.29a0.773,0.773,0,0,0-.733.12l-2.84,2.27-3.635-.17a0.757,0.757,0,0,0-.661.34l-2,3.03-3.51.96a0.752,0.752,0,0,0-.525.52l-0.96,3.51-3.042,1.99a0.759,0.759,0,0,0-.337.66l0.172,3.63-2.275,2.83a0.76,0.76,0,0,0-.116.74l1.286,3.39-1.287,3.4a0.74,0.74,0,0,0,.117.73l2.275,2.84-0.172,3.63a0.759,0.759,0,0,0,.337.66l3.042,1.99,0.96,3.5a0.748,0.748,0,0,0,.525.53l3.51,0.96,2,3.03a0.76,0.76,0,0,0,.661.34l3.635-.17,2.84,2.27a0.745,0.745,0,0,0,.733.11l3.4-1.28,3.4,1.28a0.613,0.613,0,0,0,.265.05,0.734,0.734,0,0,0,.468-0.16l2.84-2.27,3.635,0.17a0.759,0.759,0,0,0,.661-0.34l2-3.03,3.51-.96a0.749,0.749,0,0,0,.525-0.53l0.96-3.5,3.041-1.99a0.754,0.754,0,0,0,.337-0.66l-0.171-3.63,2.275-2.84a0.738,0.738,0,0,0,.116-0.73Zm-1.5.27,1.235,3.26-2.185,2.72a0.769,0.769,0,0,0-.164.51l0.165,3.48-2.921,1.92a0.75,0.75,0,0,0-.311.42l-0.922,3.37-3.371.92a0.771,0.771,0,0,0-.429.31l-1.918,2.92-3.491-.17a0.759,0.759,0,0,0-.5.16l-2.727,2.19-3.269-1.24a0.727,0.727,0,0,0-.53,0l-3.269,1.24-2.728-2.19a0.758,0.758,0,0,0-.5-0.16l-3.491.17-1.919-2.92a0.765,0.765,0,0,0-.428-0.31l-3.371-.92-0.922-3.37a0.75,0.75,0,0,0-.311-0.42l-2.921-1.92,0.164-3.48a0.763,0.763,0,0,0-.163-0.51l-2.186-2.72,1.236-3.26a0.756,0.756,0,0,0,0-.53l-1.236-3.26,2.186-2.73a0.737,0.737,0,0,0,.163-0.5l-0.164-3.48,2.921-1.92a0.74,0.74,0,0,0,.311-0.43l0.922-3.36,3.371-.92a0.765,0.765,0,0,0,.428-0.31l1.919-2.92,3.491,0.17a0.717,0.717,0,0,0,.5-0.17l2.728-2.18,3.269,1.24a0.8,0.8,0,0,0,.53,0l3.269-1.24,2.727,2.18a0.719,0.719,0,0,0,.5.17l3.491-.17,1.918,2.92a0.767,0.767,0,0,0,.429.31l3.371,0.92,0.922,3.36a0.74,0.74,0,0,0,.311.43l2.921,1.92-0.165,3.48a0.743,0.743,0,0,0,.164.5l2.185,2.73-1.235,3.26A0.745,0.745,0,0,0,485.22,3214.63Zm-7.007-13.17c-0.186-.2-0.379-0.41-0.574-0.6s-0.4-.39-0.6-0.57a0.748,0.748,0,1,0-1.013,1.1c0.187,0.17.374,0.35,0.554,0.53s0.358,0.36.53,0.55a0.749,0.749,0,0,0,.552.24,0.713,0.713,0,0,0,.506-0.2A0.738,0.738,0,0,0,478.213,3201.46Zm-3.833-3.21a19.139,19.139,0,0,0-23.781,2.61,19.064,19.064,0,0,0-1.125,25.77,0.761,0.761,0,0,0,.574.26,0.784,0.784,0,0,0,.481-0.17,0.755,0.755,0,0,0,.091-1.06,17.589,17.589,0,0,1,11.672-28.8,17.676,17.676,0,0,1,11.283,2.65A0.748,0.748,0,0,0,474.38,3198.25Zm5.877,5.86a0.75,0.75,0,1,0-1.263.81,17.615,17.615,0,0,1-26.206,22.91,0.746,0.746,0,1,0-.964,1.14,19.052,19.052,0,0,0,12.29,4.47c0.26,0,.522-0.01.783-0.02A19.081,19.081,0,0,0,480.257,3204.11Z" transform="translate(-440.219 -3190.5)"/>
</svg>
